<?xml version="1.0" standalone="no"?>
<!DOCTYPE svg PUBLIC "-//W3C//DTD SVG 20010904//EN"
 "http://www.w3.org/TR/2001/REC-SVG-20010904/DTD/svg10.dtd">
<svg version="1.0" xmlns="http://www.w3.org/2000/svg"
 width="4267.000000pt" height="4267.000000pt" viewBox="0 0 4267.000000 4267.000000"
 preserveAspectRatio="xMidYMid meet">
<metadata>
Created by potrace 1.11, written by Peter Selinger 2001-2013
</metadata>
<g transform="translate(0.000000,4267.000000) scale(0.100000,-0.100000)"
fill="#000000" stroke="none">
<path d="M0 21335 l0 -21335 21335 0 21335 0 0 21335 0 21335 -21335 0 -21335
0 0 -21335z m22370 20196 c69 -6 202 -15 295 -21 419 -25 1122 -108 1590 -187
50 -8 131 -21 180 -29 50 -7 124 -20 165 -29 41 -8 134 -26 205 -40 196 -38
319 -64 435 -90 226 -51 508 -118 570 -135 36 -9 101 -27 145 -38 677 -178
1605 -488 2135 -712 25 -10 117 -49 205 -86 843 -350 1800 -848 2565 -1332
197 -124 576 -376 720 -477 69 -49 148 -104 175 -123 28 -19 181 -133 340
-253 993 -744 1939 -1627 2746 -2564 574 -665 1099 -1374 1544 -2080 48 -77
98 -156 110 -175 61 -94 324 -544 413 -705 186 -336 499 -964 636 -1273 122
-276 161 -367 216 -502 21 -52 50 -124 65 -160 30 -73 47 -116 134 -350 124
-331 145 -391 221 -619 82 -249 178 -563 230 -756 11 -38 33 -119 50 -180 54
-198 165 -651 200 -820 169 -812 275 -1527 330 -2215 44 -558 45 -585 45
-1440 0 -854 -1 -898 -45 -1440 -60 -735 -188 -1572 -356 -2325 -172 -768
-421 -1594 -707 -2345 -295 -776 -656 -1549 -1055 -2260 -129 -230 -169 -301
-215 -378 -18 -29 -61 -101 -96 -160 -90 -151 -252 -405 -397 -622 -1001
-1507 -2242 -2861 -3659 -3995 -728 -582 -1410 -1048 -2243 -1531 -117 -68
-215 -124 -216 -124 -2 0 -52 -27 -112 -61 -153 -86 -598 -314 -859 -440 -338
-163 -651 -300 -1048 -461 -196 -78 -230 -92 -437 -168 -58 -21 -143 -53 -190
-70 -199 -73 -420 -143 -490 -156 -43 -8 -149 -13 -246 -14 -152 0 -183 3
-268 25 -172 45 -287 108 -394 218 -117 118 -190 256 -224 422 -21 99 -21 114
-14 1205 22 3843 21 3981 -15 4400 -19 221 -83 603 -133 800 -184 714 -480
1262 -912 1686 l-123 120 187 23 c502 60 1061 148 1407 221 50 10 137 29 195
41 127 26 488 113 585 140 39 11 102 29 140 39 1020 285 1904 690 2635 1207
346 245 694 551 997 878 433 469 834 1076 1108 1679 74 164 89 198 116 266 17
41 39 95 50 120 71 169 221 622 279 843 11 42 29 112 40 155 118 445 245 1197
285 1692 40 488 48 672 48 1190 1 439 -2 564 -16 700 -10 91 -22 210 -27 265
-42 432 -184 1046 -345 1490 -20 55 -40 111 -45 125 -8 24 -86 217 -126 310
-51 119 -253 513 -338 658 -224 382 -532 804 -815 1117 -50 55 -90 105 -91
112 0 7 9 36 21 65 113 285 242 811 279 1137 6 51 17 150 26 220 21 173 29
698 15 936 -38 654 -175 1300 -418 1975 -87 243 -100 268 -142 279 -170 44
-595 37 -906 -14 -433 -72 -858 -197 -1415 -415 -651 -256 -1620 -780 -2375
-1283 -66 -44 -124 -80 -130 -80 -5 1 -55 13 -110 28 -146 39 -479 122 -560
139 -38 8 -142 30 -230 49 -1128 244 -2309 367 -3525 367 -1295 0 -2541 -139
-3770 -422 -118 -27 -276 -65 -350 -85 -74 -19 -160 -41 -190 -48 -30 -8 -67
-18 -81 -24 -24 -9 -40 -1 -153 72 -253 164 -315 203 -516 326 -1059 643
-2044 1082 -2895 1289 -259 64 -473 98 -730 118 -168 13 -226 14 -365 4 -231
-17 -225 -14 -270 -130 -258 -657 -406 -1281 -477 -2015 -4 -44 -8 -278 -7
-520 1 -461 -1 -429 54 -855 14 -107 46 -273 86 -440 64 -271 101 -394 180
-598 13 -34 24 -67 24 -73 0 -6 -49 -66 -108 -132 -318 -359 -541 -668 -822
-1142 -81 -136 -258 -491 -329 -660 -34 -82 -69 -163 -76 -180 -52 -118 -195
-554 -243 -740 -48 -186 -63 -248 -91 -390 -52 -261 -80 -456 -123 -865 -19
-179 -15 -1196 6 -1470 46 -611 88 -961 162 -1375 113 -629 283 -1239 486
-1740 53 -133 68 -168 138 -325 66 -148 228 -460 325 -625 565 -964 1350
-1738 2350 -2315 163 -94 172 -99 360 -195 268 -137 607 -285 920 -401 142
-52 504 -174 575 -192 19 -5 89 -25 155 -44 234 -69 418 -115 785 -199 386
-88 985 -186 1590 -260 96 -12 177 -23 179 -25 2 -2 -42 -48 -99 -101 -170
-160 -332 -364 -475 -598 -67 -109 -231 -433 -258 -510 -8 -22 -29 -78 -47
-125 -55 -146 -126 -384 -165 -553 -24 -107 -75 -389 -75 -420 0 -25 -8 -31
-67 -58 -64 -29 -125 -53 -258 -104 -75 -29 -295 -103 -355 -120 -412 -114
-608 -153 -926 -185 -361 -37 -801 -21 -1111 40 -1017 199 -1810 787 -2449
1815 -176 283 -408 571 -673 836 -525 523 -1021 808 -1615 926 -113 23 -164
27 -371 31 -367 6 -592 -31 -751 -124 -136 -80 -151 -230 -39 -399 116 -176
427 -433 700 -581 93 -50 204 -124 290 -192 100 -80 324 -307 441 -447 459
-551 957 -1379 1179 -1960 59 -152 200 -425 298 -573 121 -182 228 -313 387
-473 356 -358 784 -617 1330 -804 414 -142 866 -226 1420 -262 147 -10 817
-10 980 -1 455 28 789 65 1262 144 114 19 211 34 216 34 6 0 12 -300 16 -708
3 -389 11 -1129 17 -1644 11 -869 10 -944 -6 -1039 -46 -278 -184 -478 -415
-605 -228 -125 -615 -150 -888 -58 -220 74 -552 193 -642 228 -19 8 -114 45
-210 82 -167 64 -213 82 -395 159 -153 65 -411 178 -504 221 -51 24 -95 44
-97 44 -1 0 -65 30 -141 66 -1675 797 -3152 1799 -4516 3064 -125 115 -724
713 -847 845 -795 849 -1524 1805 -2132 2795 -313 511 -629 1090 -866 1590
-101 214 -137 291 -174 375 -22 50 -46 104 -53 120 -14 30 -25 56 -70 165 -13
30 -39 93 -60 140 -20 47 -61 148 -91 225 -30 77 -63 160 -73 185 -21 50 -45
114 -91 240 -17 47 -40 108 -50 135 -18 47 -70 197 -145 420 -18 55 -54 168
-80 250 -25 83 -53 172 -61 199 -19 59 -74 255 -110 386 -14 52 -34 124 -44
160 -19 67 -103 406 -140 565 -127 542 -284 1483 -330 1975 -5 58 -18 197 -29
310 -51 531 -56 678 -56 1555 0 850 1 878 45 1435 55 688 161 1403 330 2215
35 169 146 622 200 820 17 61 39 142 50 180 52 193 148 507 230 756 76 228 97
288 221 619 87 234 104 277 134 350 15 36 44 108 65 160 55 135 94 226 216
502 137 309 450 937 636 1273 89 161 352 611 413 705 12 19 62 98 110 175
1112 1766 2601 3378 4290 4644 160 120 313 234 340 253 28 19 106 74 175 123
144 101 523 353 720 477 765 484 1722 982 2565 1332 88 37 180 76 205 86 531
225 1457 533 2135 712 44 11 109 29 145 38 62 17 344 84 570 135 116 26 239
52 435 90 72 14 164 32 205 40 41 9 116 22 165 29 50 8 131 21 180 29 464 79
1176 162 1585 187 85 5 229 14 320 20 91 6 192 12 225 14 143 8 1700 -3 1815
-13z m-10263 -37046 c844 -110 1333 -725 1333 -1675 0 -397 -86 -749 -250
-1015 -277 -453 -732 -684 -1345 -685 -319 0 -541 45 -780 159 -462 220 -742
641 -820 1235 -20 153 -20 468 0 619 52 399 207 731 453 969 225 218 499 346
842 393 135 18 424 18 567 0z m7383 0 c92 -32 163 -108 197 -209 16 -46 18
-144 23 -1041 6 -956 7 -993 27 -1080 66 -284 186 -420 432 -487 112 -31 391
-31 506 0 260 71 388 232 440 556 12 75 15 248 15 993 0 583 4 929 11 980 20
146 86 242 197 284 76 28 215 24 278 -9 90 -46 143 -114 170 -214 22 -82 20
-1898 -2 -2087 -37 -319 -125 -526 -300 -707 -194 -198 -435 -306 -774 -345
-134 -15 -508 -6 -645 15 -647 103 -954 444 -1015 1126 -8 85 -10 425 -8 1055
3 924 3 930 24 982 39 95 102 157 193 189 50 18 179 17 231 -1z m4753 0 c148
-19 267 -54 396 -115 133 -64 208 -118 307 -223 130 -137 196 -285 196 -441 1
-98 -19 -152 -84 -222 -60 -65 -124 -94 -214 -94 -133 0 -188 46 -305 256
-134 240 -227 322 -410 360 -98 20 -294 20 -389 -1 -160 -36 -303 -134 -353
-242 -32 -71 -30 -180 6 -249 33 -66 102 -126 197 -174 101 -50 186 -77 505
-159 444 -113 666 -197 838 -313 221 -150 336 -361 353 -647 29 -485 -243
-868 -731 -1030 -193 -64 -371 -86 -640 -78 -288 8 -464 46 -660 142 -230 113
-387 273 -501 508 -76 159 -97 333 -50 433 52 113 142 169 271 169 153 0 224
-64 320 -289 84 -196 152 -293 259 -364 127 -85 270 -119 461 -109 208 11 369
72 481 182 169 166 177 412 17 567 -106 103 -209 144 -623 248 -535 134 -730
220 -915 405 -114 113 -169 205 -207 342 -29 106 -31 344 -4 448 97 375 428
622 926 690 133 18 415 18 553 0z m10327 -13 c350 -73 617 -256 745 -510 66
-131 83 -274 45 -376 -26 -67 -99 -147 -160 -175 -51 -23 -150 -28 -214 -10
-60 17 -131 97 -205 233 -167 308 -292 387 -610 387 -218 0 -378 -56 -484
-170 -64 -69 -87 -127 -87 -215 0 -141 109 -258 312 -336 43 -17 216 -66 386
-109 485 -125 671 -193 854 -314 176 -116 284 -260 340 -454 20 -69 23 -99 23
-273 -1 -184 -2 -200 -29 -285 -125 -408 -480 -673 -993 -740 -131 -17 -387
-20 -518 -5 -407 47 -702 207 -893 484 -65 93 -126 220 -148 306 -25 96 -24
224 2 281 29 63 78 116 138 147 44 23 63 27 136 27 68 0 93 -5 126 -22 56 -30
118 -102 155 -182 147 -315 194 -385 313 -460 122 -77 264 -107 451 -97 218
12 368 71 489 192 135 135 156 366 47 510 -98 129 -239 192 -666 294 -233 56
-358 93 -505 151 -336 131 -526 309 -610 574 -34 106 -40 338 -11 457 87 367
399 617 864 693 142 23 148 23 387 20 175 -3 246 -8 320 -23z m-25041 -32 c35
-6 80 -19 101 -30 50 -25 114 -99 128 -148 15 -50 15 -134 0 -184 -18 -61 -88
-133 -156 -160 -56 -22 -67 -23 -474 -26 l-417 -3 -3 -1247 -3 -1247 -23 -69
c-31 -90 -110 -174 -190 -200 -74 -25 -200 -19 -263 12 -91 45 -154 130 -178
240 -8 38 -11 410 -11 1282 l0 1230 -383 0 c-233 0 -407 4 -443 11 -151 28
-233 120 -234 265 -1 144 84 244 233 273 63 13 2238 13 2316 1z m6411 -10
c139 -20 269 -57 365 -104 246 -121 412 -351 466 -646 21 -115 17 -372 -8
-490 -85 -398 -355 -634 -828 -722 -97 -18 -163 -21 -547 -25 l-437 -5 -3
-532 c-3 -526 -3 -531 -26 -587 -52 -129 -166 -209 -298 -209 -110 0 -167 22
-234 88 -39 39 -64 76 -81 117 l-24 60 0 1395 c0 1319 1 1398 18 1450 40 122
135 198 272 219 88 14 1260 6 1365 -9z m12447 9 c135 -24 213 -115 213 -251 0
-38 -6 -83 -14 -102 -22 -52 -72 -102 -128 -127 l-53 -24 -807 -3 -808 -3 0
-399 0 -400 723 0 c783 0 788 0 866 -55 118 -81 123 -302 9 -389 -70 -53 -41
-51 -843 -56 l-750 -5 -3 -462 -2 -463 772 0 c425 0 806 -5 845 -10 162 -21
247 -110 247 -260 1 -126 -56 -208 -169 -247 -46 -17 -122 -18 -1060 -18
-1123 0 -1065 -3 -1171 67 -66 44 -110 131 -125 243 -6 53 -9 528 -7 1385 4
1451 -1 1349 71 1456 38 58 129 109 217 123 85 13 1900 13 1977 0z m2807 1
c249 -17 398 -61 551 -161 277 -180 418 -506 375 -863 -24 -203 -89 -346 -215
-472 -125 -126 -278 -210 -502 -273 l-93 -26 90 -64 c222 -156 496 -515 670
-876 137 -285 146 -382 44 -495 -21 -23 -61 -54 -88 -68 -46 -25 -61 -27 -161
-27 -127 0 -162 13 -247 93 -62 58 -105 124 -363 552 -254 424 -315 512 -424
620 -147 145 -233 176 -527 187 l-184 6 0 -565 c0 -363 -4 -585 -11 -624 -14
-76 -62 -167 -108 -203 -75 -59 -98 -66 -216 -66 -103 0 -113 2 -163 30 -86
47 -141 128 -161 240 -8 40 -11 474 -11 1399 0 1458 -1 1416 55 1512 46 78
127 128 235 143 81 12 1279 12 1454 1z"/>
<path d="M11678 3960 c-153 -24 -326 -106 -437 -206 -237 -213 -368 -637 -332
-1077 35 -430 180 -724 442 -896 245 -162 576 -184 862 -57 291 129 489 447
538 866 17 147 6 446 -20 568 -79 369 -241 598 -514 728 -110 51 -213 74 -357
79 -69 2 -151 0 -182 -5z"/>
<path d="M14950 3444 l0 -496 348 5 c315 3 355 6 430 25 112 30 182 64 245
122 91 83 137 199 137 345 0 183 -83 345 -210 409 -135 69 -263 86 -647 86
l-303 0 0 -496z"/>
<path d="M30120 3496 l0 -446 373 0 c205 0 411 5 457 10 331 41 478 160 497
400 10 131 -29 245 -115 333 -62 64 -112 92 -208 119 -75 20 -105 22 -541 26
l-463 4 0 -446z"/>
</g>
</svg>
